<?xml version="1.0" encoding="utf-8"?>
<!-- Generator: Adobe Illustrator 27.9.0, SVG Export Plug-In . SVG Version: 6.00 Build 0)  -->
<svg version="1.1" id="Слой_1" xmlns="http://www.w3.org/2000/svg" xmlns:xlink="http://www.w3.org/1999/xlink" x="0px" y="0px"
	 viewBox="0 0 12 8" style="enable-background:new 0 0 12 8;" xml:space="preserve">
<style type="text/css">
	.st0{fill:#0A4093;}
</style>
<path class="st0" d="M0.5,7.1c0.2,0.2,0.4,0.3,0.6,0.3c0.2,0,0.5-0.1,0.6-0.3L6,2.4l4.3,4.7c0.2,0.2,0.4,0.3,0.6,0.3
	c0.2,0,0.4-0.1,0.6-0.3c0.2-0.2,0.3-0.4,0.3-0.7c0-0.2-0.1-0.5-0.2-0.7L6.6,0.4C6.5,0.2,6.2,0.1,6,0.1S5.6,0.2,5.4,0.4L0.5,5.7
	C0.3,5.9,0.2,6.1,0.2,6.4C0.2,6.6,0.3,6.9,0.5,7.1z"/>
</svg>
