<svg width="11" height="21" viewBox="0 0 11 21" fill="none" xmlns="http://www.w3.org/2000/svg">
<path d="M0.28047 19.3128C0.190251 19.4082 0.119722 19.5205 0.0729064 19.6433C0.0260905 19.766 0.00390615 19.8967 0.00762073 20.028C0.0113353 20.1593 0.0408754 20.2886 0.0945539 20.4085C0.148232 20.5284 0.224998 20.6365 0.32047 20.7268C0.415941 20.817 0.528248 20.8875 0.650976 20.9343C0.773705 20.9811 0.904452 21.0033 1.03575 20.9996C1.16706 20.9959 1.29634 20.9663 1.41623 20.9127C1.53611 20.859 1.64425 20.7822 1.73447 20.6868L10.2345 11.6868C10.41 11.5011 10.5078 11.2553 10.5078 10.9998C10.5078 10.7442 10.41 10.4984 10.2345 10.3128L1.73447 1.31175C1.64485 1.21419 1.53673 1.13541 1.4164 1.07998C1.29608 1.02456 1.16594 0.993596 1.03354 0.988892C0.901148 0.984189 0.769138 1.00584 0.645182 1.05258C0.521225 1.09933 0.407791 1.17024 0.311471 1.26119C0.215151 1.35215 0.137862 1.46134 0.0840962 1.58241C0.0303299 1.70349 0.00115799 1.83404 -0.00172686 1.96649C-0.00461171 2.09894 0.0188496 2.23064 0.0672934 2.35394C0.115737 2.47724 0.188198 2.58969 0.280468 2.68475L8.13247 10.9998L0.28047 19.3128Z" fill="white"/>
</svg>
