<svg width="12" height="8" viewBox="0 0 12 8" fill="none" xmlns="http://www.w3.org/2000/svg">
<path d="M11.523 0.387292C11.3601 0.210456 11.1391 0.111114 10.9088 0.111114C10.6784 0.111114 10.4575 0.210456 10.2946 0.387292L5.99432 5.05648L1.69405 0.387291C1.53021 0.215467 1.31076 0.12039 1.08298 0.122539C0.855199 0.124688 0.637308 0.223891 0.476236 0.398781C0.315165 0.573671 0.223801 0.810255 0.221822 1.05758C0.219842 1.3049 0.307406 1.54317 0.465654 1.72108L5.38012 7.05716C5.54303 7.234 5.76396 7.33334 5.99432 7.33334C6.22468 7.33334 6.44561 7.234 6.60852 7.05716L11.523 1.72108C11.6859 1.54419 11.7773 1.30431 11.7773 1.05418C11.7773 0.804062 11.6859 0.564181 11.523 0.387292Z" fill="#0A4093"/>
</svg>
