<svg width="29" height="35" viewBox="0 0 29 35" fill="none" xmlns="http://www.w3.org/2000/svg">
<path d="M4.24967 34.5834C3.31009 34.5834 2.50604 34.2491 1.83751 33.5806C1.16898 32.912 0.834147 32.1074 0.833008 31.1667V3.83335C0.833008 2.89377 1.16784 2.08971 1.83751 1.42119C2.50717 0.752659 3.31123 0.417826 4.24967 0.416687H24.7497C25.6893 0.416687 26.4939 0.75152 27.1635 1.42119C27.8332 2.09085 28.1675 2.89491 28.1663 3.83335V31.1667C28.1663 32.1063 27.8321 32.9109 27.1635 33.5806C26.495 34.2502 25.6904 34.5845 24.7497 34.5834H4.24967ZM12.7913 15.7917L17.0622 13.2292L21.333 15.7917V3.83335H12.7913V15.7917Z" fill="#0A4093"/>
</svg>
