<svg width="22" height="14" viewBox="0 0 22 14" fill="none" xmlns="http://www.w3.org/2000/svg">
<path d="M21.8038 6.43C21.7125 6.311 19.5355 3.486 16.5313 1.555C14.9736 0.552 13.0089 0 11.0002 0C8.9915 0 7.0279 0.552 5.46693 1.555C2.46269 3.486 0.287886 6.311 0.196582 6.43C0.0685933 6.5975 0 6.79656 0 7.0005C0 7.20444 0.0685933 7.4035 0.196582 7.571C0.287886 7.69 2.46269 10.515 5.46693 12.446C7.0279 13.448 8.9926 14 11.0002 14C13.0078 14 14.9736 13.448 16.5313 12.445C19.5355 10.514 21.7125 7.689 21.8038 7.57C21.9315 7.4026 22 7.20373 22 7C22 6.79627 21.9315 6.5974 21.8038 6.43ZM11.0002 10.5C8.87269 10.5 7.15001 8.93 7.15001 7C7.15001 5.066 8.87269 3.5 11.0002 3.5C13.1233 3.5 14.8504 5.066 14.8504 7C14.8504 8.93 13.1233 10.5 11.0002 10.5ZM13.2003 7C13.2003 8.102 12.2124 9 11.0002 9C10.5651 9 10.1397 8.8827 9.77788 8.66294C9.41607 8.44318 9.13408 8.13082 8.96756 7.76537C8.80104 7.39991 8.75747 6.99778 8.84236 6.60982C8.92725 6.22186 9.13679 5.86549 9.44448 5.58579C9.75217 5.30608 10.1442 5.1156 10.571 5.03843C10.9978 4.96126 11.4401 5.00087 11.8421 5.15224C12.2442 5.30362 12.5878 5.55996 12.8295 5.88886C13.0713 6.21776 13.2003 6.60444 13.2003 7Z" fill="white"/>
</svg>
