<svg width="34" height="29" viewBox="0 0 34 29" fill="none" xmlns="http://www.w3.org/2000/svg">
<path fill-rule="evenodd" clip-rule="evenodd" d="M11.8354 26.3883C6.8323 22.5416 0 16.1872 0 10.1791C0 0.141754 9.35 -3.60605 17 4.14544C24.65 -3.60605 34 0.141754 34 10.1791C34 16.1872 27.166 22.5416 22.1646 26.3883C19.9002 28.1283 18.768 29 17 29C15.232 29 14.0998 28.13 11.8354 26.3883ZM24.65 5.54425C24.9882 5.54425 25.3125 5.67905 25.5516 5.91898C25.7907 6.15892 25.925 6.48434 25.925 6.82366V8.956H28.05C28.3882 8.956 28.7125 9.09079 28.9516 9.33073C29.1907 9.57066 29.325 9.89608 29.325 10.2354C29.325 10.5747 29.1907 10.9001 28.9516 11.1401C28.7125 11.38 28.3882 11.5148 28.05 11.5148H25.925V13.6471C25.925 13.9865 25.7907 14.3119 25.5516 14.5518C25.3125 14.7918 24.9882 14.9266 24.65 14.9266C24.3118 14.9266 23.9875 14.7918 23.7484 14.5518C23.5093 14.3119 23.375 13.9865 23.375 13.6471V11.5148H21.25C20.9118 11.5148 20.5875 11.38 20.3484 11.1401C20.1093 10.9001 19.975 10.5747 19.975 10.2354C19.975 9.89608 20.1093 9.57066 20.3484 9.33073C20.5875 9.09079 20.9118 8.956 21.25 8.956H23.375V6.82366C23.375 6.48434 23.5093 6.15892 23.7484 5.91898C23.9875 5.67905 24.3118 5.54425 24.65 5.54425Z" fill="#0A4093"/>
</svg>
