<svg width="20" height="20" viewBox="0 0 20 20" fill="none" xmlns="http://www.w3.org/2000/svg">
<path d="M3.19666 0C1.67231 0 0.444824 1.20185 0.444824 2.69438V16.4529C0.444824 17.9454 1.67231 19.1473 3.19666 19.1473H17.2485C18.7729 19.1473 20.0004 17.9454 20.0004 16.4529V2.69438C20.0004 1.20185 18.7729 0 17.2485 0H3.19666ZM10.6608 1.95662C12.88 1.95662 14.6843 3.72399 14.6843 5.89676C14.6843 8.06937 12.88 9.83572 10.6608 9.83572C8.44147 9.83572 6.63599 8.06937 6.63599 5.89676C6.63599 3.72399 8.44145 1.95662 10.6608 1.95662ZM10.618 4.26507C9.71906 4.28748 8.99427 5.01151 8.99427 5.89678C8.99427 6.79573 9.74207 7.52729 10.6608 7.52729C11.5793 7.52729 12.326 6.79573 12.326 5.89678C12.326 4.99748 11.5793 4.26507 10.6608 4.26507C10.6464 4.26507 10.6323 4.26471 10.618 4.26507ZM7.32898 9.96977C7.54213 9.97048 7.75719 10.0279 7.9511 10.1475C9.59822 11.1616 11.7216 11.1622 13.3692 10.1475C13.9209 9.80733 14.648 9.97061 14.9954 10.5107C15.3424 11.0499 15.1757 11.7627 14.6244 12.1023C13.9057 12.5446 13.1158 12.8648 12.2881 13.0495L14.5383 15.2526C14.9989 15.7027 14.9989 16.4342 14.5383 16.8849C14.0774 17.3359 13.3318 17.3359 12.8718 16.8849L10.6595 14.7201L8.44977 16.8849C8.21966 17.1103 7.91772 17.223 7.61621 17.223C7.31439 17.223 7.01347 17.11 6.78266 16.8849C6.3221 16.4339 6.32224 15.7037 6.78266 15.2526L9.03154 13.0495C8.2126 12.8667 7.4224 12.5493 6.69466 12.1023C6.14448 11.7627 5.97904 11.0506 6.32615 10.5107C6.54248 10.1732 6.90793 9.98248 7.28621 9.97036C7.30047 9.96991 7.31473 9.96971 7.329 9.96977H7.32898Z" fill="white"/>
</svg>
