<svg width="40" height="40" viewBox="0 0 40 40" fill="none" xmlns="http://www.w3.org/2000/svg">
<path opacity="0.5" fill-rule="evenodd" clip-rule="evenodd" d="M29.9808 27.9857L40 37.9472L37.9348 40L27.8936 30.0192C24.5029 32.7983 20.1635 34.1685 15.7809 33.8439C11.3983 33.5193 7.31116 31.5249 4.37235 28.2769C1.43355 25.0289 -0.12984 20.7783 0.00845099 16.4121C0.146742 12.046 1.97603 7.90155 5.11456 4.84376C8.25309 1.78597 12.4584 0.0510734 16.8528 0.00110975C21.2473 -0.0488539 25.4914 1.58998 28.6995 4.57561C31.9076 7.56124 33.8317 11.663 34.0705 16.0249C34.3092 20.3868 32.844 24.6718 29.9808 27.9857ZM31.1741 16.9446C31.1741 13.2208 29.6859 9.6496 27.0369 7.01651C24.3879 4.38341 20.795 2.90416 17.0488 2.90416C13.3025 2.90416 9.70966 4.38341 7.06064 7.01651C4.41163 9.6496 2.92342 13.2208 2.92342 16.9446C2.92342 20.6684 4.41163 24.2396 7.06064 26.8727C9.70966 29.5058 13.3025 30.9851 17.0488 30.9851C20.795 30.9851 24.3879 29.5058 27.0369 26.8727C29.6859 24.2396 31.1741 20.6684 31.1741 16.9446Z" fill="white"/>
</svg>
