<svg width="32" height="22" viewBox="0 0 32 22" fill="none" xmlns="http://www.w3.org/2000/svg">
<path d="M0.531249 8.75L0.53125 13.25C0.533855 15.5616 1.45327 17.7777 3.08779 19.4122C4.72231 21.0467 6.93844 21.9661 9.25 21.9687L22.75 21.9687C25.0616 21.9661 27.2777 21.0467 28.9122 19.4122C30.5467 17.7777 31.4661 15.5616 31.4687 13.25L31.4687 8.75C31.4661 6.43844 30.5467 4.22231 28.9122 2.58779C27.2777 0.953271 25.0616 0.0338544 22.75 0.031249L9.25 0.0312496C6.93844 0.0338552 4.72231 0.953272 3.08779 2.58779C1.45327 4.22231 0.533855 6.43844 0.531249 8.75ZM22.75 1.71875C24.6141 1.72098 26.4012 2.46249 27.7194 3.78062C29.0375 5.09875 29.779 6.88588 29.7812 8.75L29.7812 13.25C29.779 15.1141 29.0375 16.9012 27.7194 18.2194C26.4012 19.5375 24.6141 20.279 22.75 20.2812L9.25 20.2812C7.38588 20.279 5.59875 19.5375 4.28062 18.2194C2.96249 16.9012 2.22098 15.1141 2.21875 13.25L2.21875 8.75C2.22098 6.88588 2.96249 5.09875 4.28062 3.78062C5.59875 2.46249 7.38588 1.72098 9.25 1.71875L22.75 1.71875ZM9.03766 10.1562L22.9595 10.1562L21.0259 8.22125C20.8769 8.0613 20.7958 7.84975 20.7996 7.63116C20.8035 7.41257 20.892 7.20401 21.0466 7.04943C21.2012 6.89484 21.4098 6.80628 21.6283 6.80243C21.8469 6.79857 22.0585 6.87971 22.2184 7.02875L25.5934 10.4037C25.7514 10.562 25.8402 10.7764 25.8402 11C25.8402 11.2236 25.7514 11.438 25.5934 11.5962L22.2184 14.9712C22.0585 15.1203 21.8469 15.2014 21.6283 15.1976C21.4098 15.1937 21.2012 15.1052 21.0466 14.9506C20.892 14.796 20.8035 14.5874 20.7996 14.3688C20.7958 14.1502 20.8769 13.9387 21.0259 13.7787L22.9623 11.8437L9.04047 11.8437L10.9712 13.7787C11.1203 13.9387 11.2014 14.1502 11.1976 14.3688C11.1937 14.5874 11.1052 14.796 10.9506 14.9506C10.796 15.1052 10.5874 15.1937 10.3688 15.1976C10.1502 15.2014 9.9387 15.1203 9.77875 14.9712L6.40375 11.5962C6.24574 11.438 6.15699 11.2236 6.15699 11C6.15699 10.7764 6.24574 10.562 6.40375 10.4037L9.77875 7.02875C9.85599 6.94585 9.94914 6.87936 10.0526 6.83325C10.1561 6.78713 10.2679 6.76233 10.3812 6.76033C10.4945 6.75834 10.607 6.77918 10.712 6.82161C10.8171 6.86405 10.9125 6.92721 10.9927 7.00733C11.0728 7.08745 11.136 7.18289 11.1784 7.28795C11.2208 7.39301 11.2417 7.50555 11.2397 7.61884C11.2377 7.73213 11.2129 7.84386 11.1668 7.94736C11.1206 8.05086 11.0541 8.14401 10.9712 8.22125L9.03766 10.1562Z" fill="#0A4093"/>
</svg>
