<svg width="35" height="35" viewBox="0 0 35 35" fill="none" xmlns="http://www.w3.org/2000/svg">
<path d="M5 0C3.67392 0 2.40215 0.526784 1.46447 1.46447C0.526784 2.40215 0 3.67392 0 5V19.9925C0 21.3186 0.526784 22.5904 1.46447 23.528C2.40215 24.4657 3.67392 24.9925 5 24.9925H7.5V27.52H6.265C5.93348 27.52 5.61554 27.6517 5.38112 27.8861C5.1467 28.1205 5.015 28.4385 5.015 28.77C5.015 29.1015 5.1467 29.4195 5.38112 29.6539C5.61554 29.8883 5.93348 30.02 6.265 30.02H10V21.875C10 20.0516 10.7243 18.303 12.0136 17.0136C13.303 15.7243 15.0516 15 16.875 15H30V5C30 3.67392 29.4732 2.40215 28.5355 1.46447C27.5979 0.526784 26.3261 0 25 0H5ZM12.5 21.25C12.5 20.2554 12.8951 19.3016 13.5983 18.5983C14.3016 17.8951 15.2554 17.5 16.25 17.5H31.25C32.2446 17.5 33.1984 17.8951 33.9016 18.5983C34.6049 19.3016 35 20.2554 35 21.25V31.25C35 32.2446 34.6049 33.1984 33.9016 33.9016C33.1984 34.6049 32.2446 35 31.25 35H16.25C15.2554 35 14.3016 34.6049 13.5983 33.9016C12.8951 33.1984 12.5 32.2446 12.5 31.25V21.25ZM17.5 31.25C17.5 31.5815 17.6317 31.8995 17.8661 32.1339C18.1005 32.3683 18.4185 32.5 18.75 32.5H28.75C29.0815 32.5 29.3995 32.3683 29.6339 32.1339C29.8683 31.8995 30 31.5815 30 31.25C30 30.9185 29.8683 30.6005 29.6339 30.3661C29.3995 30.1317 29.0815 30 28.75 30H18.75C18.4185 30 18.1005 30.1317 17.8661 30.3661C17.6317 30.6005 17.5 30.9185 17.5 31.25ZM18.75 22.5C19.0815 22.5 19.3995 22.3683 19.6339 22.1339C19.8683 21.8995 20 21.5815 20 21.25C20 20.9185 19.8683 20.6005 19.6339 20.3661C19.3995 20.1317 19.0815 20 18.75 20C18.4185 20 18.1005 20.1317 17.8661 20.3661C17.6317 20.6005 17.5 20.9185 17.5 21.25C17.5 21.5815 17.6317 21.8995 17.8661 22.1339C18.1005 22.3683 18.4185 22.5 18.75 22.5ZM22.5 26.25C22.5 25.9185 22.3683 25.6005 22.1339 25.3661C21.8995 25.1317 21.5815 25 21.25 25C20.9185 25 20.6005 25.1317 20.3661 25.3661C20.1317 25.6005 20 25.9185 20 26.25C20 26.5815 20.1317 26.8995 20.3661 27.1339C20.6005 27.3683 20.9185 27.5 21.25 27.5C21.5815 27.5 21.8995 27.3683 22.1339 27.1339C22.3683 26.8995 22.5 26.5815 22.5 26.25ZM23.75 22.5C24.0815 22.5 24.3995 22.3683 24.6339 22.1339C24.8683 21.8995 25 21.5815 25 21.25C25 20.9185 24.8683 20.6005 24.6339 20.3661C24.3995 20.1317 24.0815 20 23.75 20C23.4185 20 23.1005 20.1317 22.8661 20.3661C22.6317 20.6005 22.5 20.9185 22.5 21.25C22.5 21.5815 22.6317 21.8995 22.8661 22.1339C23.1005 22.3683 23.4185 22.5 23.75 22.5ZM27.5 26.25C27.5 25.9185 27.3683 25.6005 27.1339 25.3661C26.8995 25.1317 26.5815 25 26.25 25C25.9185 25 25.6005 25.1317 25.3661 25.3661C25.1317 25.6005 25 25.9185 25 26.25C25 26.5815 25.1317 26.8995 25.3661 27.1339C25.6005 27.3683 25.9185 27.5 26.25 27.5C26.5815 27.5 26.8995 27.3683 27.1339 27.1339C27.3683 26.8995 27.5 26.5815 27.5 26.25ZM28.75 22.5C29.0815 22.5 29.3995 22.3683 29.6339 22.1339C29.8683 21.8995 30 21.5815 30 21.25C30 20.9185 29.8683 20.6005 29.6339 20.3661C29.3995 20.1317 29.0815 20 28.75 20C28.4185 20 28.1005 20.1317 27.8661 20.3661C27.6317 20.6005 27.5 20.9185 27.5 21.25C27.5 21.5815 27.6317 21.8995 27.8661 22.1339C28.1005 22.3683 28.4185 22.5 28.75 22.5Z" fill="#0A4093"/>
</svg>
