<svg width="20" height="20" viewBox="0 0 20 20" fill="none" xmlns="http://www.w3.org/2000/svg">
<path d="M13.2258 0H7.2229C1.7449 0 0.446289 1.2715 0.446289 6.63513V12.5128C0.446289 17.8764 1.7449 19.1479 7.2229 19.1479H13.2258C18.7038 19.1479 20.0025 17.8764 20.0025 12.5128V6.63513C20.0025 1.2715 18.691 0 13.2258 0ZM16.2337 13.6592H14.8141C14.2763 13.6592 14.1107 13.2415 13.1433 12.2818C12.3031 11.4842 11.9309 11.3783 11.7237 11.3783C11.431 11.3783 11.3479 11.4591 11.3479 11.8522V13.1081C11.3479 13.445 11.2397 13.6472 10.3292 13.6472C8.8234 13.6472 7.15262 12.7557 5.98112 11.0947C4.2144 8.66056 3.73101 6.83738 3.73101 6.46041C3.73101 6.25757 3.81351 6.06789 4.21134 6.06789H5.63401C5.99396 6.06789 6.13084 6.23005 6.27079 6.60701C6.97418 8.59534 8.14568 10.3371 8.62907 10.3371C8.80751 10.3371 8.89001 10.2564 8.89001 9.81059V7.75704C8.83562 6.80985 8.32657 6.72848 8.32657 6.3922C8.32657 6.23005 8.46346 6.06789 8.68285 6.06789H10.9201C11.2226 6.06789 11.3338 6.23005 11.3338 6.57889V9.34926C11.3338 9.64844 11.4707 9.75434 11.5532 9.75434C11.7317 9.75434 11.8845 9.64844 12.2151 9.32413C13.2368 8.20222 13.969 6.47238 13.969 6.47238C14.0643 6.26954 14.2299 6.07986 14.5898 6.07986H16.0125C16.4391 6.07986 16.5344 6.29467 16.4391 6.59385C16.2606 7.40402 14.5196 9.80999 14.5196 9.80999C14.3698 10.0529 14.3124 10.1588 14.5196 10.4299C14.6723 10.6327 15.1692 11.0534 15.4998 11.4303C16.1078 12.1065 16.5753 12.6737 16.7 13.0662C16.84 13.4558 16.6334 13.6586 16.2319 13.6586L16.2337 13.6592Z" fill="white"/>
</svg>
