<svg width="22" height="15" viewBox="0 0 22 15" fill="none" xmlns="http://www.w3.org/2000/svg">
<path d="M21.5408 2.68765C21.4156 2.25326 21.1701 1.85713 20.8288 1.53889C20.4875 1.22066 20.0625 0.991479 19.5962 0.874296C17.8799 0.444397 11 0.444397 11 0.444397C11 0.444397 4.12009 0.444397 2.40379 0.872009C1.93733 0.988812 1.51207 1.21786 1.17073 1.53616C0.829388 1.85445 0.58398 2.25079 0.459152 2.68536C-1.09275e-07 4.28605 0 7.62463 0 7.62463C0 7.62463 -1.09275e-07 10.9632 0.459152 12.5616C0.712053 13.4443 1.45848 14.1394 2.40379 14.375C4.12009 14.8049 11 14.8049 11 14.8049C11 14.8049 17.8799 14.8049 19.5962 14.375C20.544 14.1394 21.2879 13.4443 21.5408 12.5616C22 10.9632 22 7.62463 22 7.62463C22 7.62463 22 4.28605 21.5408 2.68765ZM8.81473 10.6888V4.56045L14.5112 7.60176L8.81473 10.6888Z" fill="white"/>
</svg>
