<svg width="126" height="80" viewBox="0 0 126 80" fill="none" xmlns="http://www.w3.org/2000/svg">
<path d="M63.7616 15.6313C38.0411 15.6313 17.1929 26.2048 17.1929 39.246C17.1929 52.2872 38.0431 62.8607 63.7616 62.8607C89.48 62.8607 110.33 52.2872 110.33 39.246C110.33 26.2048 89.48 15.6313 63.7616 15.6313ZM63.85 62.0401C39.7986 62.0401 20.3036 51.8509 20.3036 39.28C20.3036 26.7092 39.7986 16.52 63.85 16.52C87.8995 16.52 107.396 26.7092 107.396 39.28C107.396 51.8509 87.8995 62.0401 63.85 62.0401Z" fill="white"/>
<path d="M63.9082 15.5149C49.8103 15.5149 38.3828 26.1144 38.3828 39.1876C38.3828 52.2608 49.8103 62.8603 63.9082 62.8603C78.0041 62.8603 89.4336 52.2608 89.4336 39.1876C89.4336 26.1124 78.0061 15.5149 63.9082 15.5149ZM64.0249 62.0377C51.6241 62.0377 41.57 51.8746 41.57 39.3377C41.57 26.8009 51.6241 16.6377 64.0249 16.6377C76.4256 16.6377 86.4797 26.8009 86.4797 39.3377C86.4797 51.8746 76.4256 62.0377 64.0249 62.0377Z" fill="white"/>
<path d="M94.5772 22.5919C86.5097 26.4106 75.7317 28.7502 63.8759 28.7502C51.7586 28.7502 40.7655 26.3065 32.6437 22.3357C32.3944 22.5538 32.0867 22.718 31.7188 22.802C39.6213 27.2652 51.1594 30.0812 64.0227 30.0812C76.4375 30.0812 87.6117 27.4533 95.48 23.2583C95.104 23.1182 94.8024 22.8821 94.5772 22.5919Z" fill="white"/>
<path d="M32.8994 55.7636C40.9669 51.9449 51.7449 49.6032 63.6007 49.6032C75.7179 49.6032 86.7111 52.0469 94.8328 56.0178C95.0802 55.7996 95.3898 55.6355 95.7558 55.5514C87.8553 51.0903 76.3152 48.2703 63.4539 48.2703C51.0391 48.2703 39.8649 50.8981 31.9966 55.0931C32.3746 55.2372 32.6742 55.4714 32.8994 55.7636Z" fill="white"/>
<path d="M107.751 38.2791H20.1035V39.572H107.751V38.2791Z" fill="white"/>
<path d="M64.0267 62.4498C64.1936 62.4498 64.3504 62.4658 64.4992 62.4938V16.2832H63.2002V62.5839C63.4455 62.4978 63.719 62.4498 64.0267 62.4498Z" fill="white"/>
<path d="M81.8327 19.4022L83.369 15.5795H73.6788L64.1073 38.4556H61.2117L67.2985 22.3422L62.9853 22.2842L60.4939 29.0169H59.971L57.4897 22.3122H53.1181L58.0809 35.6116L56.9387 38.3555H56.072L49.6515 22.2822H45.5152L44.727 29.2611L44.2142 29.2211L42.2054 22.3603L37.8721 22.3402L42.7182 39.1001H47.0314L47.7995 30.1017H48.2721L63.8117 69.2093L75.6293 38.9219V38.3936L68.4205 38.4516L69.7798 34.9231L75.9249 34.9812L77.4612 31.0404H71.67L73.0293 27.2757H78.8205L80.4151 23.395H74.5656L76.2205 19.3962H81.8327V19.4022ZM69.8683 42.7867L64.1073 57.471H63.6348L57.9341 42.7867H69.8683Z" fill="#F24944"/>
<path d="M63.8196 71.4068L48.3965 32.5894L47.7732 39.9025H42.1147L36.8062 21.5356L42.8125 21.5636L44.2382 26.435L44.7972 21.4835H50.1982L56.5122 37.2927L57.218 35.5975L51.9617 21.5116H58.0525L60.2343 27.4057L62.4281 21.4755L68.4545 21.5576L62.3738 37.655H63.5702L73.1418 14.7788H84.5552L82.3755 20.2026H76.7572L75.7659 22.6003H81.6134L79.3592 28.0822H73.5942L72.814 30.2457H78.6353L76.4737 35.7916L70.3306 35.7336L69.5947 37.6469L76.4335 37.5909V39.078L63.8196 71.4068ZM47.0614 29.3031H48.8208L63.8075 67.0177L74.6599 39.204L67.25 39.2641L69.2307 34.1205L75.3778 34.1785L76.2887 31.8449H70.5297L72.4661 26.4791H78.2814L79.2185 24.1995H73.367L75.6834 18.5995H81.2896L82.1824 16.3779H74.2175L64.646 39.2541H60.0533L66.1441 23.1247L63.5441 23.0887L61.0567 29.8134H59.4118L56.9305 23.1087H54.2762L58.9473 35.6235L57.4794 39.152H55.5289L49.1084 23.0787H46.2369L45.4426 30.1136L43.6007 29.9715L41.604 23.1527L38.9457 23.1407L43.3273 38.2954H46.2952L47.0614 29.3031ZM64.6581 58.2735H63.0836L56.7596 41.988H71.0445L64.6581 58.2735ZM59.1062 43.5871L63.8739 55.8658L68.6918 43.5871H59.1062Z" fill="white"/>
<path d="M81.8288 19.4016L83.3651 15.5789H73.6749L64.1034 38.455H61.2078L67.2946 22.3416L62.9814 22.2836L60.49 29.0163H59.9671L57.4858 22.3116H53.1142L58.077 35.611L56.9348 38.3549H56.0681L49.6476 22.2816H45.5113L44.7231 29.2605L44.2103 29.2205L42.2015 22.3596L37.8682 22.3396L42.7143 39.0995H47.0275L47.7956 30.1011H48.2682L63.8078 69.2087L75.6254 38.9213V38.393L68.4166 38.451L69.7759 34.9225L75.921 34.9805L77.4573 31.0398H71.6661L73.0254 27.2751H78.8166L80.4112 23.3944H74.5617L76.2166 19.3956H81.8288V19.4016ZM69.8644 42.7861L64.1034 57.4704H63.6309L57.9302 42.7861H69.8644Z" fill="#F24944"/>
<path d="M3.71802 29.7029C2.57386 28.8302 1.91229 27.4253 2.76891 26.0403C3.52498 24.8174 5.19999 24.4792 6.76844 25.4399C8.46155 26.4766 8.91801 28.0397 8.12977 29.3146C7.29527 30.6635 5.58808 30.8797 4.10208 29.9791L3.58932 30.8076L5.03913 31.6963C5.71678 32.1106 5.80726 32.0865 6.1853 31.5802L6.46078 31.7483L5.11956 33.9178L4.84408 33.7497C5.13163 33.1793 5.11755 33.0792 4.4399 32.665L1.43171 30.8217C0.762103 30.4114 0.65754 30.4394 0.275483 30.9517L0 30.7776L1.34122 28.6101L1.6167 28.7782C1.33318 29.3426 1.35127 29.4347 2.02892 29.849L3.18716 30.5575L3.71802 29.7029ZM4.59675 28.7562C6.06867 29.6588 7.39381 29.7829 7.84624 29.0504C8.19009 28.494 7.86233 27.6354 6.29589 26.6767C4.67316 25.682 3.44454 25.668 3.03232 26.3345C2.67038 26.9189 3.18716 27.8916 4.59675 28.7562Z" fill="white"/>
<path d="M14.2888 22.0114C13.8404 22.4777 13.4603 22.4597 12.8852 22.2456C12.6138 22.1415 12.1352 21.9333 11.6144 21.6892C10.8945 21.3589 10.5587 21.469 10.2611 21.7912L11.5038 22.9761C12.1513 23.5945 12.2398 23.5945 12.7344 23.1622L12.9677 23.3844L11.1841 25.2357L10.9508 25.0135C11.359 24.5092 11.3671 24.4091 10.7196 23.7906L9.47689 22.6058C9.15918 22.922 9.04055 23.2863 9.40048 23.9888C9.66189 24.5011 9.90922 24.9515 10.0299 25.2096C10.2692 25.772 10.3094 26.1443 9.86699 26.6026L9.18533 27.3111L8.95207 27.089C9.1994 26.7647 9.27983 26.5086 9.06065 25.9522C8.85354 25.3958 8.62229 24.9034 8.5117 24.6192C8.28649 23.9868 8.35888 23.5805 8.58409 23.1622L8.56398 23.1422C8.42121 23.1962 7.9728 23.3043 7.22477 23.0561C6.40033 22.7819 6.14496 22.7539 5.9117 22.9961L5.79708 23.1142C5.66638 23.2503 5.4653 23.2863 5.30443 23.1322C5.11742 22.9541 5.10938 22.6839 5.3728 22.4237C5.65432 22.1435 6.05246 22.1175 6.71804 22.3836C7.47411 22.6879 7.86019 22.8059 8.22817 22.7979C8.67055 22.7899 8.89174 22.6679 9.20946 22.3516L8.26839 21.453C7.66715 20.8806 7.56661 20.8906 7.07798 21.3189L6.84472 21.0967L8.62833 19.2454L8.86158 19.4676C8.45338 19.9719 8.45137 20.066 9.05261 20.6384L9.99368 21.5371C10.2913 21.2148 10.4421 20.9526 10.4119 20.5303C10.4039 20.1661 10.2511 19.7918 9.92732 19.0913C9.62368 18.4088 9.63977 18.0066 9.91526 17.7084C10.1485 17.4542 10.432 17.4502 10.613 17.6223C10.7859 17.7884 10.7276 17.9825 10.609 18.1186L10.4883 18.2427C10.2611 18.4789 10.2953 18.7491 10.611 19.5396C10.8985 20.2662 10.802 20.7245 10.7598 20.8626L10.7799 20.8826C11.1901 20.6424 11.5963 20.5524 12.2337 20.7565C12.5293 20.8486 13.034 21.0567 13.6011 21.2388C14.1682 21.435 14.4235 21.3429 14.7372 21.0827L14.9705 21.3049L14.2888 22.0114Z" fill="white"/>
<path d="M16.5632 13.1334C16.0645 13.5897 16.0565 13.6638 16.531 14.2882L18.6806 17.1142C19.1491 17.7306 19.2376 17.7326 19.8006 17.3904L19.9957 17.6466L17.8924 19.2297L17.6973 18.9735C18.202 18.5132 18.2242 18.4271 17.7496 17.8027L16.712 16.4377L14.8299 17.8547L15.8675 19.2197C16.342 19.8441 16.4305 19.8461 16.9795 19.5139L17.1745 19.7701L15.1194 21.3172L14.9244 21.061C15.3889 20.6307 15.417 20.5406 14.9425 19.9162L12.803 17.0962C12.3284 16.4717 12.2339 16.4757 11.6628 16.822L11.4678 16.5658L13.5369 15.0087L13.732 15.2649C13.2755 15.6892 13.2534 15.7752 13.7279 16.3997L14.5484 17.4784L16.4305 16.0614L15.6101 14.9827C15.1355 14.3582 15.047 14.3562 14.49 14.6945L14.295 14.4383L16.3702 12.8772L16.5632 13.1334Z" fill="white"/>
<path d="M20.0701 13.3796C20.3074 13.2015 20.5507 13.0534 20.7981 12.9113C21.8477 12.3128 22.827 12.4549 23.378 13.4136C23.7821 14.1161 23.7057 14.7125 23.4463 15.1789C23.195 15.6412 22.6943 16.0535 22.1091 16.3857L20.2491 17.4465L20.0882 17.1663C20.6312 16.794 20.6613 16.6919 20.235 15.9474L18.5439 13.0093C18.1156 12.2668 18.0211 12.2568 17.446 12.521L17.2852 12.2408L19.5514 10.9499L19.7122 11.2301C19.1391 11.6204 19.107 11.7024 19.5433 12.4609L20.0701 13.3796ZM22.3323 14.1081C21.8035 13.1895 21.2022 13.1494 20.5729 13.5097C20.4522 13.5777 20.3678 13.6378 20.2632 13.7178L21.2465 15.427C21.5783 16.0014 21.8457 16.1035 22.1594 15.9254C22.5374 15.7092 22.9215 15.1308 22.3323 14.1081ZM24.3974 15.0828L24.2366 14.8026C24.7634 14.4383 24.7896 14.3283 24.3854 13.6258L22.638 10.5896C22.2519 9.91915 22.1514 9.90114 21.5702 10.1693L21.4094 9.88913L23.6534 8.61023L23.8143 8.89043C23.2875 9.25468 23.2593 9.34475 23.6534 10.0312L25.4008 13.0674C25.797 13.7539 25.8975 13.7919 26.4807 13.5237L26.6415 13.8039L24.3974 15.0828Z" fill="white"/>
<path d="M30.2008 12.2907L30.0721 11.9944C30.6834 11.6702 30.7175 11.5741 30.3757 10.7896L29.511 8.80619C29.3783 8.50198 29.2155 8.12972 28.9018 7.30313L28.8776 7.31314L28.6826 12.4167C28.6745 12.5708 28.7067 12.6669 28.755 12.777L28.8073 12.8951L26.9754 13.6876L26.8467 13.3914C27.4439 13.0732 27.4781 12.9591 27.1282 12.1566L25.8091 9.13442C25.4512 8.31585 25.3507 8.27782 24.7112 8.49597L24.5825 8.19976L26.9533 7.17504L27.082 7.47125C26.525 7.77146 26.4848 7.84952 26.8346 8.65208L27.5867 10.3753C27.7335 10.7135 27.9285 11.1599 28.2804 12.0725L28.2965 12.0665L28.5016 6.98891C28.5177 6.85081 28.4936 6.73073 28.4634 6.66468L28.4111 6.5466L30.2349 5.75804L30.3636 6.05425C29.7664 6.37248 29.7322 6.48656 30.064 7.24709L31.4173 10.3453C31.7592 11.1298 31.8617 11.1679 32.4931 10.9537L32.6218 11.2499L30.2008 12.2907ZM25.9177 6.27441C25.8333 6.08027 25.8674 5.8341 26.0806 5.74203C26.3339 5.63195 26.5169 5.8341 26.5712 6.00221C26.6698 6.23038 26.8728 6.41451 27.1906 6.27641C27.5083 6.13831 27.5042 5.87012 27.4037 5.64196C27.3172 5.48785 27.2931 5.21766 27.5485 5.10758C27.7697 5.01152 27.9667 5.15762 28.0512 5.35176C28.2684 5.85011 27.9848 6.32444 27.3273 6.60864C26.6758 6.88884 26.1349 6.77276 25.9177 6.27441Z" fill="white"/>
<path d="M37.9974 3.55827C37.4424 3.83846 37.3921 3.99658 37.3197 4.71508C37.2473 5.51965 37.0503 7.7132 36.9719 8.47173C36.8311 9.8367 36.4028 10.231 35.9403 10.3751C35.6105 10.4771 35.2144 10.3691 35.1058 10.0268C35.0596 9.8487 35.1078 9.68859 35.2023 9.58252C35.3049 9.47444 35.4698 9.4224 35.7171 9.49045C35.88 9.54649 36.0831 9.5605 36.2077 9.52047C36.4149 9.45643 36.5697 9.11819 36.4651 8.78395C36.4108 8.60783 36.2821 8.43571 36.073 8.20154C35.699 7.78725 33.9818 5.8719 33.6299 5.49964C33.3604 5.21744 33.2498 5.12537 32.6888 5.21343L32.5923 4.90522L34.9007 4.18471L34.9972 4.49293L34.76 4.63503C34.6112 4.7391 34.6172 4.84317 34.8022 5.05532L36.7306 7.27089C36.7869 6.35624 36.8492 5.51565 36.8673 4.62302C36.8713 4.20672 36.811 4.07063 36.5275 4.09264L36.2077 4.11466L36.1112 3.80644L37.9009 3.24805L37.9974 3.55827Z" fill="white"/>
<path d="M44.5078 2.02323C43.8664 2.23738 43.8282 2.30343 44.0051 3.06596L44.8095 6.5184C44.9844 7.27093 45.0648 7.31096 45.7204 7.2249L45.7928 7.53912L43.2249 8.13154L43.1525 7.81732C43.802 7.60116 43.8583 7.53111 43.6794 6.76858L43.2913 5.0994L40.9929 5.62977L41.381 7.29895C41.558 8.06149 41.6384 8.09952 42.2758 8.01746L42.3482 8.33168L39.8387 8.91209L39.7663 8.59787C40.3655 8.39372 40.4299 8.32167 40.2529 7.55913L39.4506 4.1147C39.2737 3.35217 39.1852 3.31614 38.5216 3.4022L38.4492 3.08798L40.9748 2.50357L41.0472 2.81779C40.456 3.01993 40.4017 3.08998 40.5787 3.85252L40.8863 5.17145L43.1847 4.64108L42.8771 3.32215C42.7001 2.55961 42.6197 2.52158 41.9742 2.60364L41.9018 2.28942L44.4355 1.703L44.5078 2.02323Z" fill="white"/>
<path d="M49.651 6.94495L49.6027 6.62672C50.2784 6.46861 50.3347 6.38455 50.206 5.53796L49.8802 3.39845C49.83 3.07021 49.7696 2.66993 49.6792 1.78931L49.653 1.79331L48.1509 6.67676C48.1027 6.82286 48.1107 6.92493 48.1288 7.04302L48.1489 7.17111L46.1743 7.46932L46.126 7.15109C46.7836 6.99498 46.8479 6.89291 46.7152 6.0283L46.2185 2.77C46.0838 1.88738 45.9953 1.82534 45.3217 1.87137L45.2734 1.55314L47.8292 1.16687L47.8775 1.4851C47.2621 1.6332 47.2018 1.69925 47.3345 2.56386L47.6181 4.42117C47.6744 4.78542 47.7468 5.26777 47.8513 6.23845L47.8674 6.23645L49.3735 1.37902C49.4238 1.25093 49.4318 1.12884 49.4198 1.05479L49.3996 0.926702L51.3642 0.630493L51.4125 0.948718C50.7549 1.10483 50.6906 1.2069 50.8153 2.02548L51.324 5.36583C51.4527 6.21243 51.5412 6.27448 52.2068 6.22844L52.255 6.54667L49.651 6.94495Z" fill="white"/>
<path d="M55.5249 3.06396C56.5343 3.10999 57.226 3.48626 57.2984 4.35687C57.3507 4.97131 57.0712 5.47566 56.6127 5.79989C56.1965 6.1021 55.543 6.28623 54.8291 6.34628L52.6413 6.52841L52.6152 6.20818C53.2727 6.08809 53.3451 6.01805 53.2788 5.23749L52.9832 1.73302C52.9168 0.944465 52.8344 0.896431 52.2171 0.882421L52.1909 0.562195L54.7065 0.352046C55.36 0.298008 55.8003 0.354048 56.1542 0.546183C56.482 0.740321 56.7032 1.10057 56.7414 1.55089C56.8158 2.43151 56.1301 2.84981 55.5208 3.02994L55.5249 3.06396ZM54.429 3.02593C55.2634 2.95588 55.5972 2.57762 55.5329 1.81708C55.4625 0.982491 54.9799 0.708298 54.5154 0.746325C54.3264 0.762336 54.1857 0.83839 54.1374 0.898432C54.0831 0.968481 54.0771 1.10658 54.0932 1.29871L54.2399 3.04194L54.429 3.02593ZM54.4149 5.12542C54.4712 5.80389 54.6602 5.98202 55.1167 5.93599C55.5972 5.88595 56.11 5.46566 56.0336 4.56702C55.9612 3.70441 55.4163 3.31614 54.443 3.39619L54.2701 3.4102L54.4149 5.12542Z" fill="white"/>
<path d="M62.5121 4.45114C62.4639 4.86744 62.3131 5.71003 62.2527 5.98623L57.847 6.10831L57.839 5.78609C58.5709 5.70203 58.6574 5.64399 58.6353 4.86143L58.5347 1.32894C58.5126 0.528376 58.4241 0.484345 57.8088 0.446318L57.8008 0.12409L61.8707 0.0100098C61.8848 0.176127 61.9451 0.81858 61.9954 1.38698L61.6777 1.44102C61.5912 1.12079 61.4705 0.820582 61.3097 0.658467C61.1589 0.496353 60.9236 0.438312 60.439 0.452322L60.0248 0.46433C59.705 0.472336 59.6708 0.49235 59.6789 0.796565L59.7332 2.74794L60.3123 2.73193C61.0382 2.71192 61.1568 2.66188 61.2514 2.01542L61.563 2.00742L61.6153 3.85672L61.3036 3.86473C61.1729 3.20627 61.0603 3.17224 60.3244 3.19226L59.7452 3.20827L59.7895 4.79939C59.8015 5.2417 59.8438 5.46986 60.0187 5.55793C60.1756 5.62797 60.4712 5.63798 60.7989 5.62797C61.2473 5.61597 61.549 5.54191 61.742 5.30775C61.9089 5.0996 62.0557 4.80139 62.2005 4.3931L62.5121 4.45114Z" fill="white"/>
<path d="M65.342 0.0580409C66.0237 0.0740522 66.5062 0.188133 66.8461 0.454321C67.2442 0.758535 67.4654 1.22486 67.4513 1.82329C67.4212 3.05616 66.5505 3.59654 65.6315 3.69461C65.5008 3.71062 65.3721 3.70662 65.2776 3.70461L64.6945 3.53449L64.6623 4.80339C64.6422 5.58594 64.7186 5.65199 65.4526 5.73405L65.4445 6.04627L62.7661 5.98022L62.7742 5.668C63.4236 5.61997 63.5041 5.55792 63.5222 4.77537L63.6107 1.25088C63.6308 0.46833 63.5544 0.402284 62.9511 0.322227L62.9571 0L65.342 0.0580409ZM64.7025 3.17424C64.8051 3.22227 64.9861 3.27431 65.167 3.27831C65.4787 3.28632 66.1745 3.06416 66.2066 1.82129C66.2328 0.780551 65.6959 0.426301 65.169 0.414292C65.0042 0.410289 64.8996 0.454321 64.8473 0.498352C64.785 0.55239 64.7649 0.644455 64.7629 0.782552L64.7025 3.17424Z" fill="white"/>
<path d="M73.4179 5.00546C73.2671 5.44577 72.9836 6.12425 72.8086 6.43247C72.5794 6.46849 71.7711 6.58458 71.1859 6.53454C68.8956 6.3404 68.0832 4.67122 68.2099 3.2142C68.3728 1.32486 69.8367 0.136025 71.8957 0.312149C72.5935 0.372191 73.2148 0.618365 73.4421 0.684412C73.4762 1.19477 73.5004 1.62307 73.5104 2.21549L73.1867 2.25352C72.9957 1.14674 72.3602 0.768471 71.6967 0.712431C70.448 0.606357 69.6517 1.7952 69.535 3.15215C69.3903 4.83134 70.1483 6.01417 71.3186 6.11424C72.0325 6.17429 72.6096 5.73397 73.1284 4.84535L73.4179 5.00546Z" fill="white"/>
<path d="M76.9757 7.12682L77.026 6.8086C77.7177 6.86063 77.7982 6.79659 77.9289 5.95199L78.2627 3.81448C78.3129 3.48625 78.3773 3.08597 78.5563 2.21936L78.5301 2.21536L75.6245 6.42433C75.534 6.55041 75.5098 6.64848 75.4918 6.76657L75.4716 6.89466L73.499 6.58844L73.5493 6.27022C74.2249 6.31825 74.3154 6.2402 74.4501 5.37559L74.9589 2.11929C75.0976 1.23667 75.0313 1.15261 74.3737 0.994494L74.424 0.67627L76.9778 1.07255L76.9275 1.39077C76.2961 1.34874 76.2177 1.39278 76.0829 2.25739L75.7934 4.11269C75.7371 4.47695 75.6607 4.95929 75.4676 5.91597L75.4837 5.91797L78.3853 1.73702C78.4718 1.62894 78.516 1.51486 78.5281 1.44281L78.5482 1.31472L80.5128 1.61893L80.4625 1.93716C79.7869 1.88913 79.6964 1.96718 79.5697 2.78576L79.0489 6.12411C78.9162 6.97071 78.9825 7.05477 79.632 7.21088L79.5818 7.52911L76.9757 7.12682Z" fill="white"/>
<path d="M85.5291 4.36506C85.5352 3.87472 85.4869 3.54248 85.3723 3.34835C85.2577 3.15221 85.0566 3.06014 84.5599 2.94606L84.1799 2.86L83.2086 7.105C83.0337 7.86754 83.1061 7.94159 83.832 8.17175L83.7596 8.48597L81.0128 7.86153L81.0852 7.54731C81.8071 7.64538 81.9036 7.61136 82.0786 6.84682L83.0538 2.60182L82.7683 2.53577C82.0685 2.37766 81.8976 2.4317 81.7448 2.55779C81.5658 2.67787 81.3949 2.96007 81.1838 3.38437L80.8721 3.31432C81.0571 2.66587 81.2561 2.02341 81.3788 1.56909L81.5899 1.61713C81.6704 1.84329 81.7749 1.89532 82.0182 1.95136L85.4045 2.72191C85.6236 2.77194 85.7544 2.74392 85.9353 2.60582L86.1465 2.65386C86.068 3.03212 85.9293 3.83269 85.8388 4.4171L85.5291 4.36506Z" fill="white"/>
<path d="M90.0117 8.66021C89.8348 9.04048 89.4306 9.79501 89.2858 10.0412L85.0591 8.79631L85.1516 8.48809C85.8735 8.6342 85.974 8.60417 86.1972 7.85364L87.2066 4.46325C87.4359 3.69471 87.3655 3.62666 86.7924 3.4005L86.8849 3.09229L90.7879 4.2411C90.7497 4.40321 90.6069 5.03366 90.4762 5.59005L90.1565 5.54402C90.1746 5.21378 90.1525 4.88955 90.0499 4.68741C89.9554 4.48727 89.7503 4.35918 89.2878 4.22308L88.8897 4.105C88.584 4.01494 88.5438 4.02294 88.4574 4.31315L87.9004 6.18447L88.4553 6.34858C89.1511 6.55273 89.2798 6.54272 89.5714 5.95631L89.8689 6.04437L89.3421 7.81962L89.0445 7.73156C89.127 7.06509 89.0284 6.99704 88.3246 6.78889L87.7697 6.62478L87.3152 8.15185C87.1885 8.57615 87.1564 8.80632 87.2971 8.94241C87.4258 9.05649 87.7013 9.15857 88.017 9.25063C88.4473 9.37672 88.757 9.40074 89.0123 9.23662C89.2355 9.09052 89.4688 8.85235 89.7342 8.50811L90.0117 8.66021Z" fill="white"/>
<path d="M95.6933 7.66954C95.7637 7.1852 95.7596 6.84896 95.6712 6.64082C95.5827 6.43067 95.3957 6.31459 94.9191 6.13646L94.5552 6.00236L93.035 10.0852C92.7615 10.8198 92.8238 10.8998 93.5156 11.2241L93.403 11.5263L90.7607 10.5516L90.8734 10.2494C91.5771 10.4395 91.6777 10.4175 91.9512 9.68496L93.4713 5.60208L93.1959 5.50001C92.5222 5.25183 92.3453 5.28386 92.1764 5.38993C91.9833 5.486 91.7782 5.74418 91.5108 6.13646L91.2112 6.02638C91.4786 5.40795 91.7621 4.79551 91.9411 4.36121L92.1442 4.43526C92.1945 4.66942 92.291 4.73547 92.5262 4.82153L95.7858 6.02438C95.9969 6.10244 96.1296 6.09243 96.3287 5.97835L96.5318 6.0524C96.4051 6.41866 96.1638 7.19321 95.9969 7.75961L95.6933 7.66954Z" fill="white"/>
<path d="M97.6032 15.0964C96.8733 13.6874 96.9638 12.1544 97.6816 10.6293L97.6856 10.6213C98.3995 9.10421 99.5215 8.06148 101.08 7.70923L101.178 8.02945C100.117 8.45976 99.1013 9.54252 98.4276 10.9755C97.752 12.4105 97.563 13.9877 97.9189 14.9583L97.6032 15.0964Z" fill="white"/>
<path d="M101.935 15.591L102.094 15.3108C102.723 15.599 102.819 15.569 103.242 14.8225L104.305 12.9351C104.468 12.6469 104.667 12.2927 105.14 11.5421L105.118 11.5301L100.917 14.4622C100.789 14.5483 100.732 14.6323 100.674 14.7384L100.61 14.8505L98.8682 13.8778L99.027 13.5976C99.6423 13.8778 99.7549 13.8358 100.185 13.0732L101.806 10.1992C102.244 9.42064 102.214 9.31857 101.653 8.94231L101.812 8.66211L104.066 9.921L103.907 10.2012C103.33 9.94101 103.242 9.95702 102.811 10.7196L101.888 12.3567C101.707 12.6769 101.468 13.1032 100.949 13.9338L100.963 13.9418L105.152 11.0338C105.271 10.9637 105.353 10.8717 105.389 10.8076L105.454 10.6955L107.187 11.6642L107.028 11.9444C106.413 11.6642 106.3 11.7063 105.892 12.4288L104.229 15.3748C103.809 16.1214 103.839 16.2234 104.392 16.5957L104.233 16.8759L101.935 15.591Z" fill="white"/>
<path d="M112.165 15.5311C111.606 15.261 111.447 15.319 110.829 15.6953C110.142 16.1256 108.27 17.2984 107.616 17.6947C106.44 18.4112 105.865 18.3091 105.468 18.0309C105.187 17.8328 105.032 17.4525 105.241 17.1603C105.356 17.0142 105.513 16.9562 105.655 16.9662C105.804 16.9802 105.945 17.0802 106.042 17.3164C106.096 17.4785 106.208 17.6486 106.313 17.7227C106.49 17.8468 106.854 17.7667 107.057 17.4805C107.164 17.3304 107.226 17.1243 107.284 16.8181C107.389 16.2697 107.879 13.7499 107.962 13.2455C108.024 12.8613 108.03 12.7172 107.62 12.3269L107.807 12.0647L109.782 13.4577L109.595 13.7199L109.339 13.6178C109.166 13.5638 109.086 13.6318 109.028 13.906L108.424 16.776C109.191 16.2657 109.898 15.8073 110.622 15.279C110.958 15.0308 111.03 14.9007 110.841 14.6886L110.63 14.4504L110.817 14.1882L112.348 15.267L112.165 15.5311Z" fill="white"/>
<path d="M112.663 18.8412C112.882 19.0093 113.083 19.1734 113.355 19.4116C114.288 20.2321 114.467 21.1868 113.775 21.9674C113.273 22.5338 112.728 22.6679 112.183 22.5818C111.694 22.5077 111.115 22.1355 110.61 21.6912L108.931 20.2161L109.14 19.982C109.675 20.3782 109.778 20.3822 110.383 19.6978L112.585 17.212C113.184 16.5355 113.164 16.4435 112.728 15.9851L112.937 15.751L116.027 18.4669C115.875 18.639 115.478 19.1394 115.118 19.6077L114.841 19.4256C115.026 19.0613 115.102 18.8452 115.139 18.595C115.177 18.3568 115.102 18.1947 114.706 17.8465L114.304 17.4942C114.065 17.2841 114.051 17.272 113.825 17.5282L112.663 18.8412ZM112.768 21.2048C113.417 20.4723 113.266 19.8619 112.716 19.3795C112.611 19.2875 112.508 19.2094 112.406 19.1314L111.181 20.5123C110.711 21.0447 110.717 21.2709 111.047 21.5611C111.352 21.8273 112.064 21.9974 112.768 21.2048Z" fill="white"/>
<path d="M118.614 24.3992C118.22 24.047 118.136 24.075 117.778 24.3972L116.087 25.9123C115.715 26.2445 115.685 26.3206 115.994 26.7469L115.775 26.943L114.37 25.3899L114.589 25.1938C114.919 25.476 115.009 25.466 115.367 25.1458L116.268 24.3392C116.439 24.1851 116.64 24.007 117.185 23.5646L117.173 23.5526L114.13 24.6334C114.038 24.6694 113.957 24.7175 113.897 24.7735L113.849 24.8175L112.703 23.5506L112.922 23.3545C113.316 23.7067 113.386 23.6907 113.758 23.3565L115.435 21.8534C115.813 21.5152 115.846 21.4391 115.54 21.0188L115.747 20.8347L117.147 22.3818L116.939 22.5659C116.61 22.2837 116.519 22.2937 116.161 22.614L115.405 23.2924C115.186 23.4886 114.882 23.7608 114.378 24.1671L114.39 24.1791L117.446 23.0843C117.519 23.0543 117.585 23.0303 117.625 22.9942L117.667 22.9582L118.814 24.2251L118.614 24.3992Z" fill="white"/>
<path d="M117.819 29.877L118.088 29.6989C118.496 30.2133 118.589 30.2353 119.345 29.7389L122.6 27.5954C122.902 27.3973 122.892 27.3833 122.711 27.1111L121.877 25.8542C121.696 25.582 121.671 25.578 121.408 25.7501L118.128 27.9077C117.372 28.406 117.356 28.4981 117.658 29.0525L117.388 29.2306L115.953 27.0711L116.222 26.8929C116.64 27.4213 116.733 27.4433 117.489 26.947L120.282 25.1077C121.008 24.6293 121.024 24.5373 120.678 23.9188L120.948 23.7407L124.29 28.7723L124.02 28.9504C123.592 28.406 123.499 28.384 122.759 28.8723L119.98 30.7016C119.224 31.2 119.208 31.292 119.534 31.8825L119.264 32.0606L117.819 29.877Z" fill="white"/>
<path d="M117.971 33.2635L118.091 32.9593C119.149 33.3076 120.665 33.0934 122.101 32.4129C123.537 31.7324 124.701 30.6097 125.065 29.657L125.371 29.7611C125.023 31.3061 123.983 32.4289 122.447 33.1554C120.927 33.874 119.394 33.97 117.971 33.2635Z" fill="white"/>
<path d="M5.73144 46.7711C6.25225 46.4549 6.83338 45.9586 6.65441 45.2521C6.53175 44.7637 6.07329 44.4975 5.55248 44.6276C5.05983 44.7517 4.86076 45.134 4.64962 46.0026C4.4224 47.0313 4.07855 47.7859 3.18976 48.008C2.16625 48.2642 1.15481 47.6177 0.835084 46.3448C0.756662 46.0306 0.724489 45.7144 0.738565 45.4322C0.748619 45.17 0.778781 44.9859 0.804922 44.8598C1.00802 44.7157 1.73191 44.4155 2.25473 44.2193L2.43972 44.4975C1.90887 44.8158 1.02611 45.5823 1.23524 46.4189C1.36996 46.9513 1.83245 47.1954 2.40554 47.0533C2.93439 46.9212 3.16965 46.4549 3.3647 45.7104C3.60801 44.7057 3.93377 43.9572 4.7944 43.741C5.78172 43.4948 6.7449 44.0592 7.05658 45.2981C7.19734 45.8565 7.14304 46.3969 7.12897 46.567C6.80523 46.6851 6.41714 46.8472 5.87824 47.0553L5.73144 46.7711Z" fill="white"/>
<path d="M7.90144 54.4587C6.15403 55.4214 4.41668 54.787 3.59023 53.3019C2.71552 51.7288 3.29665 49.9816 4.84298 49.131C6.23447 48.3644 8.14073 48.5766 9.14011 50.3779C9.9364 51.8069 9.49603 53.5801 7.90144 54.4587ZM5.67747 50.2498C4.28598 51.0163 3.44947 52.2492 4.00848 53.2539C4.42472 54.0004 5.51258 54.1905 7.0026 53.37C8.61327 52.4833 9.22657 51.3225 8.71381 50.4039C8.27545 49.6193 7.077 49.4792 5.67747 50.2498Z" fill="white"/>
<path d="M14.9207 58.4116C14.5709 58.0714 14.2753 58.0373 14.0058 58.2215C13.7645 58.3816 13.487 58.5837 13.0024 59.026L12.2584 59.7025C11.5345 60.361 10.8629 60.7773 10.1129 60.7773C9.50559 60.7693 8.92044 60.4751 8.48811 60.0027C8.08595 59.5644 7.7984 59.0601 7.75818 58.5117C7.724 57.8612 8.06584 57.2228 8.86414 56.4942L10.4748 55.0292C11.1163 54.4448 11.0962 54.3427 10.694 53.8084L10.9333 53.5902L12.7671 55.5876L12.5279 55.8058C12.0352 55.3655 11.9327 55.3354 11.2912 55.9198L9.80319 57.2748C8.77968 58.2075 8.51425 59.1061 9.17179 59.8206C9.89569 60.6092 10.8267 60.395 11.9668 59.3583L12.6968 58.6938C13.1814 58.2535 13.4106 57.9833 13.5856 57.7631C13.7886 57.505 13.7846 57.2288 13.3985 56.7524L13.6378 56.5343L15.16 58.1934L14.9207 58.4116Z" fill="white"/>
<path d="M18.5325 62.7966C18.7437 62.3543 18.8402 62.0301 18.814 61.7999C18.7899 61.5697 18.6411 61.3956 18.2208 61.0674L17.9011 60.8172L15.1986 64.2416C14.714 64.8581 14.7502 64.9561 15.3353 65.4945L15.1362 65.7487L12.8218 63.9394L13.0208 63.6852C13.6563 64.1015 13.7628 64.1135 14.2475 63.4971L16.95 60.0727L16.7087 59.8846C16.1195 59.4242 15.9345 59.3962 15.7375 59.4422C15.5203 59.4703 15.2408 59.6504 14.8628 59.9406L14.5993 59.7344C15.0457 59.2281 15.5042 58.7337 15.8099 58.3755L15.9868 58.5136C15.9667 58.7558 16.0431 58.8498 16.2482 59.0119L19.1016 61.2435C19.2866 61.3876 19.4193 61.4216 19.6485 61.3796L19.8255 61.5177C19.5922 61.8279 19.1257 62.4924 18.7959 62.9827L18.5325 62.7966Z" fill="white"/>
<path d="M25.7927 65.7345C25.1532 65.4363 25.0768 65.4563 24.6807 66.1308L22.879 69.1889C22.4849 69.8554 22.5211 69.9394 23.0801 70.3417L22.9172 70.6199L20.5424 69.2329L20.7053 68.9547C21.3528 69.259 21.4433 69.2469 21.8414 68.5725L22.7121 67.0954L20.5867 65.8546L19.716 67.3316C19.3178 68.0061 19.352 68.0901 19.8969 68.4824L19.7341 68.7606L17.4136 67.4057L17.5765 67.1275C18.1777 67.4036 18.2762 67.3976 18.6744 66.7212L20.472 63.671C20.8702 62.9965 20.828 62.9065 20.2609 62.5022L20.4238 62.224L22.7604 63.587L22.5975 63.8652C22.0043 63.593 21.9138 63.605 21.5157 64.2795L20.828 65.4463L22.9534 66.6871L23.6411 65.5203C24.0392 64.8458 24.0051 64.7618 23.4541 64.3655L23.617 64.0873L25.9616 65.4543L25.7927 65.7345Z" fill="white"/>
<path d="M29.4286 71.889C29.2014 72.2413 28.6906 72.9318 28.5117 73.1539L24.311 71.2766L24.4437 70.9824C25.1697 71.2366 25.2762 71.2226 25.598 70.5081L27.0538 67.2838C27.3836 66.5533 27.3192 66.4752 26.7582 66.163L26.8909 65.8688L30.7698 67.602C30.7095 67.7561 30.4863 68.3625 30.2832 68.8989L29.9594 68.8048C30.0178 68.4786 30.0359 68.1524 29.9554 67.9362C29.883 67.7221 29.688 67.564 29.2275 67.3578L28.8314 67.1817C28.5257 67.0456 28.4855 67.0476 28.3608 67.3238L27.5565 69.1051L28.1075 69.3512C28.7992 69.6595 28.9339 69.6695 29.3059 69.1291L29.6015 69.2612L28.8394 70.9484L28.5438 70.8163C28.7087 70.1638 28.6182 70.0818 27.9185 69.7695L27.3675 69.5234L26.7079 70.9844C26.527 71.3867 26.4687 71.6028 26.5953 71.7609C26.714 71.895 26.9854 72.0371 27.2991 72.1752C27.7274 72.3674 28.0431 72.4374 28.3267 72.3113C28.574 72.1992 28.8434 71.9971 29.1591 71.6949L29.4286 71.889Z" fill="white"/>
<path d="M35.2542 75.6678C35.204 75.6498 35.1115 75.6097 35.0009 75.5697C33.9452 75.1454 33.7059 74.7891 33.5491 74.1207C33.4525 73.6864 33.3862 73.138 33.2997 72.5916C33.2555 72.2834 33.1409 72.1173 32.8674 72.0232L32.7045 71.9672L32.2601 73.2361C32.0067 73.9586 32.057 74.0626 32.6844 74.3488L32.5778 74.6531L30.002 73.7604L30.1085 73.4562C30.7701 73.6163 30.8907 73.5723 31.1441 72.8498L32.3124 69.5114C32.5557 68.8149 32.5095 68.7029 31.9082 68.4267L32.0148 68.1224L34.4117 68.953C35.1617 69.2132 35.5579 69.4474 35.8253 69.8036C36.0847 70.1559 36.1812 70.6182 35.9922 71.1586C35.7248 71.9231 35.0833 72.1693 34.4298 72.2073C34.466 72.5115 34.5806 73.196 34.6972 73.6844C34.8259 74.2748 34.9144 74.617 35.0129 74.8572C35.1296 75.1214 35.2381 75.2775 35.403 75.4116L35.2542 75.6678ZM33.0504 71.697C33.4083 71.8211 33.72 71.8611 33.9653 71.761C34.3413 71.6189 34.5806 71.3107 34.7374 70.8684C35.0632 69.9377 34.651 69.4254 34.1724 69.2592C33.9593 69.1852 33.8286 69.1792 33.7582 69.2132C33.6798 69.2452 33.6335 69.3253 33.5692 69.5074L32.8292 71.6209L33.0504 71.697Z" fill="white"/>
<path d="M43.911 71.9728C43.4324 71.8807 43.2152 71.9588 43.0704 72.3491C42.9739 72.6193 42.8151 73.0256 42.612 73.8201L41.7091 77.3626L41.2888 77.2565L38.7813 71.8948L38.7552 71.8888L38.2465 73.8882C38.0474 74.6727 37.9871 75.085 37.9469 75.3612C37.8906 75.7655 37.9971 75.9716 38.6366 76.1618L38.5561 76.474L36.4126 75.9336L36.493 75.6214C36.9917 75.7094 37.229 75.6174 37.3617 75.2431C37.4723 74.9569 37.6271 74.5686 37.8262 73.7841L38.2988 71.9288C38.4496 71.3404 38.4817 71.1763 38.3691 70.9201C38.2565 70.6639 38.0836 70.5438 37.7156 70.4137L37.792 70.1095L39.4107 70.5178L41.7634 75.2811L41.7895 75.2872L42.1897 73.716C42.3928 72.9215 42.4551 72.4912 42.4953 72.227C42.5496 71.8327 42.4129 71.6366 41.7755 71.4364L41.8519 71.1322L43.9874 71.6706L43.911 71.9728Z" fill="white"/>
<path d="M52.1026 73.3019C51.616 73.2558 51.3646 73.4139 51.2701 73.7262C51.1816 74.0024 51.0952 74.3326 50.9966 74.979L50.8458 75.9717C50.699 76.9364 50.4396 77.681 49.8565 78.1513C49.3799 78.5256 48.7385 78.6617 48.1031 78.5676C47.5139 78.4795 46.971 78.2674 46.5949 77.8651C46.1566 77.3807 46.0198 76.6702 46.1807 75.6055L46.5085 73.458C46.6392 72.6014 46.5587 72.5333 45.9072 72.3712L45.9555 72.053L48.642 72.4593L48.5937 72.7775C47.9321 72.7435 47.8356 72.7835 47.7049 73.6401L47.4033 75.6255C47.1962 76.9905 47.5561 77.8551 48.5213 78.0012C49.583 78.1613 50.1722 77.4128 50.4034 75.8917L50.5522 74.917C50.6508 74.2705 50.6588 73.9183 50.6548 73.6381C50.6508 73.3119 50.4718 73.0977 49.8706 72.9696L49.9188 72.6514L52.1508 72.9876L52.1026 73.3019Z" fill="white"/>
<path d="M59.0866 73.82C58.5979 73.812 58.3989 73.9281 58.3245 74.3364C58.2762 74.6186 58.1917 75.0469 58.1314 75.8634L57.864 79.51L57.4316 79.478L54.0193 74.6326L53.9931 74.6306L53.8423 76.688C53.784 77.4966 53.7981 77.9129 53.8041 78.1891C53.8202 78.5974 53.959 78.7815 54.6245 78.8576L54.6004 79.1798L52.3945 79.0197L52.4187 78.6975C52.9254 78.6975 53.1426 78.5654 53.2089 78.1731C53.2672 77.8729 53.3517 77.4626 53.41 76.656L53.5487 74.7467C53.593 74.1402 53.597 73.9741 53.4422 73.742C53.2873 73.5098 53.0943 73.4217 52.7102 73.3557L52.7323 73.0435L54.3993 73.1635L57.5543 77.4446L57.5804 77.4466L57.6991 75.8294C57.7594 75.0129 57.7453 74.5765 57.7373 74.3084C57.7212 73.9101 57.5523 73.742 56.8887 73.6559L56.9108 73.3437L59.1087 73.5038L59.0866 73.82Z" fill="white"/>
<path d="M59.9224 79.476L59.9264 79.1538C60.604 79.0997 60.6865 79.0357 60.6965 78.2631L60.7468 74.7387C60.7589 73.9461 60.6784 73.8901 60.0008 73.816L60.0048 73.4938L62.7214 73.5318L62.7174 73.854C62.0398 73.9081 61.9674 73.9621 61.9553 74.7547L61.905 78.2792C61.893 79.0517 61.9653 79.1177 62.641 79.1918L62.637 79.514L59.9224 79.476Z" fill="white"/>
<path d="M69.8164 73.6442C69.2332 73.7323 69.0744 73.8503 68.7506 74.739C68.4832 75.4695 67.7492 77.591 67.1239 79.5143L66.6734 79.5324C65.9898 77.8752 65.0487 75.6936 64.6405 74.751C64.3308 74.0545 64.182 73.9324 63.621 73.9004L63.6069 73.5701L66.2954 73.4601L66.3095 73.7903C65.656 73.9184 65.66 74.0205 65.8108 74.4107C66.1024 75.1353 66.8926 76.9725 67.2546 77.8252L67.2807 77.8231C67.7211 76.4602 68.0649 75.3774 68.2741 74.5669C68.455 73.9244 68.449 73.7943 67.707 73.7343L67.6929 73.402L69.8043 73.314L69.8164 73.6442Z" fill="white"/>
<path d="M75.8969 77.1288C75.8788 77.5471 75.7924 78.3997 75.7501 78.6819L71.1735 79.1822L71.1373 78.862C71.8934 78.7139 71.9758 78.6498 71.8914 77.8713L71.5033 74.3568C71.4148 73.5603 71.3203 73.5242 70.6768 73.5402L70.6406 73.22L74.8674 72.7577C74.8935 72.9218 75.0101 73.5583 75.1087 74.1207L74.7809 74.2027C74.6643 73.8905 74.5155 73.6023 74.3345 73.4542C74.1636 73.3061 73.9142 73.268 73.4115 73.3241L72.9812 73.3721C72.6494 73.4082 72.6153 73.4302 72.6494 73.7324L72.8626 75.6738L73.4638 75.6077C74.2179 75.5256 74.3385 75.4656 74.3848 74.8131L74.7085 74.7771L74.9116 76.6164L74.5879 76.6524C74.3989 76.006 74.2782 75.982 73.5141 76.066L72.9129 76.1321L73.0878 77.7252C73.1361 78.1655 73.1964 78.3797 73.3854 78.4517C73.5543 78.5078 73.862 78.4917 74.2038 78.4557C74.6703 78.4057 74.978 78.3056 75.1589 78.0554C75.3158 77.8353 75.4445 77.5231 75.5631 77.1028L75.8969 77.1288Z" fill="white"/>
<path d="M82.7877 77.581C82.7355 77.591 82.6349 77.599 82.5203 77.619C81.3902 77.7651 81.0082 77.571 80.5396 77.0646C80.242 76.7344 79.9143 76.2881 79.5684 75.8538C79.3774 75.6076 79.1964 75.5175 78.9109 75.5696L78.742 75.5996L78.9812 76.9225C79.116 77.6751 79.2105 77.7411 79.8982 77.6851L79.9545 78.0013L77.272 78.4796L77.2157 78.1634C77.8713 77.9813 77.9537 77.8812 77.819 77.1307L77.1916 73.6522C77.0609 72.9277 76.9644 72.8517 76.3048 72.9037L76.2485 72.5875L78.746 72.1412C79.5282 72.0011 79.9887 72.0131 80.3969 72.1932C80.797 72.3753 81.1087 72.7296 81.2092 73.292C81.352 74.0885 80.9157 74.6169 80.3647 74.9672C80.5477 75.2153 80.984 75.7537 81.3259 76.124C81.728 76.5763 81.9754 76.8305 82.1785 76.9906C82.4117 77.1647 82.5826 77.2468 82.7897 77.2828L82.7877 77.581ZM78.9089 75.1953C79.2829 75.1293 79.5724 75.0112 79.7373 74.8051C79.9947 74.4968 80.053 74.1126 79.9706 73.6502C79.7956 72.6815 79.1823 72.4354 78.6857 72.5234C78.4645 72.5635 78.3458 72.6215 78.3016 72.6856C78.2493 72.7516 78.2473 72.8457 78.2815 73.0358L78.6776 75.2374L78.9089 75.1953Z" fill="white"/>
<path d="M86.0863 72.0609C85.7686 71.5425 85.2699 70.9641 84.5621 71.1403C84.0715 71.2623 83.804 71.7187 83.9347 72.237C84.0574 72.7274 84.4435 72.9255 85.3142 73.1357C86.3477 73.3618 87.1038 73.7041 87.327 74.5887C87.5824 75.6074 86.9329 76.6141 85.656 76.9323C85.3403 77.0104 85.0226 77.0424 84.7391 77.0284C84.4757 77.0184 84.2927 76.9884 84.164 76.9624C84.0212 76.7602 83.7176 76.0397 83.5225 75.5193L83.802 75.3352C84.1218 75.8636 84.8919 76.7442 85.7324 76.5341C86.2673 76.4 86.5146 75.9416 86.3699 75.3692C86.2371 74.8429 85.7686 74.6087 85.0226 74.4146C84.0132 74.1724 83.2611 73.8482 83.046 72.9916C82.7986 72.0089 83.3677 71.0522 84.6104 70.742C85.1714 70.6019 85.7143 70.6559 85.8852 70.6699C86.0039 70.9921 86.1647 71.3784 86.3759 71.9148L86.0863 72.0609Z" fill="white"/>
<path d="M89.0924 75.8776L88.9958 75.5694C89.6232 75.3072 89.6815 75.2212 89.4503 74.4846L88.3966 71.1183C88.1593 70.3617 88.0668 70.3337 87.3992 70.4718L87.3027 70.1636L89.8987 69.359L89.9952 69.6672C89.3678 69.9294 89.3156 70.0035 89.5508 70.76L90.6045 74.1264C90.8357 74.8649 90.9242 74.9049 91.5898 74.7668L91.6863 75.075L89.0924 75.8776Z" fill="white"/>
<path d="M96.0933 68.7388C95.8179 68.3325 95.5866 68.0863 95.3755 67.9902C95.1643 67.8942 94.9371 67.9322 94.4404 68.1243L94.0624 68.2704L95.6469 72.3293C95.9325 73.0578 96.035 73.0778 96.7991 72.8516L96.9158 73.1519L94.171 74.2126L94.0544 73.9124C94.738 73.5782 94.8024 73.4941 94.5169 72.7656L92.9323 68.7067L92.6468 68.8168C91.949 69.087 91.8304 69.2311 91.7701 69.4232C91.6836 69.6234 91.6977 69.9556 91.754 70.4259L91.4423 70.546C91.2312 69.9056 91.0381 69.2611 90.8833 68.8168L91.0944 68.7347C91.2935 68.8748 91.4142 68.8588 91.6575 68.7648L95.0417 67.4559C95.2609 67.3718 95.3574 67.2737 95.4378 67.0556L95.6489 66.9735C95.7977 67.3318 96.1356 68.0703 96.3909 68.6027L96.0933 68.7388Z" fill="white"/>
<path d="M101.716 64.6199C101.238 64.9322 101.151 65.1603 101.097 65.7948C101.043 66.4292 101.005 66.8915 101.009 67.8602C101.001 68.1424 101.021 68.2445 101.149 68.5007L101.68 69.5534C102.058 70.3019 102.141 70.324 102.895 70.0177L103.036 70.2979L100.413 71.6109L100.273 71.3307C100.928 70.9304 100.976 70.8443 100.598 70.0958L100.138 69.1832C100.033 68.977 99.961 68.911 99.8041 68.7829C99.3618 68.4486 98.7846 68.0464 97.8617 67.4159C97.2886 67.0216 97.1096 67.0076 96.6331 67.1657L96.4883 66.8775L98.7867 65.7267L98.9314 66.0149C98.4448 66.3512 98.5031 66.4452 98.7887 66.6734C99.3618 67.1077 99.9992 67.552 100.623 68.0023C100.621 67.4159 100.641 66.4372 100.58 65.8388C100.544 65.4445 100.478 65.3344 99.8423 65.5586L99.6976 65.2704L101.57 64.3337L101.716 64.6199Z" fill="white"/>
<path d="M109.293 68.4043C107.658 68.3062 106.379 67.4336 105.458 66.0186L105.452 66.0106C104.537 64.6056 104.261 63.0925 104.835 61.5594L105.168 61.6415C104.945 62.7843 105.313 64.2253 106.178 65.5543C107.042 66.8832 108.307 67.8659 109.349 68.06L109.293 68.4043Z" fill="white"/>
<path d="M108.766 66.8576L108.577 66.5974C109.088 66.1511 109.116 66.051 108.661 65.4246L106.586 62.5666C106.12 61.9241 106.021 61.9281 105.436 62.2703L105.247 62.0102L107.449 60.425L107.638 60.6852C107.127 61.1315 107.101 61.2196 107.568 61.8601L109.643 64.7181C110.097 65.3445 110.194 65.3545 110.781 65.0123L110.97 65.2725L108.766 66.8576Z" fill="white"/>
<path d="M115.89 60.9711L115.665 60.7389C116.101 60.2186 116.089 60.1405 115.498 59.5301L113.013 56.9923L112.981 57.0243L114.883 61.8477L114.7 62.0218L110.099 59.9163L110.073 59.9404L111.672 61.7436C112.172 62.324 112.48 62.6303 112.705 62.8104C113.021 63.0826 113.202 63.0245 113.676 62.6463L113.902 62.8784L112.335 64.3815L112.11 64.1493C112.448 63.7611 112.456 63.5349 112.271 63.2527C112.11 63.0105 111.816 62.6143 111.193 61.8697L110.025 60.4587C109.351 59.6602 109.216 59.6121 108.605 60.0945L108.38 59.8623L109.725 58.5714L113.785 60.2746L112.247 56.1497L113.56 54.8888L113.785 55.121C113.316 55.6733 113.343 55.7514 113.888 56.2878L116.349 58.7095C116.952 59.3059 117.03 59.3219 117.587 58.8876L117.813 59.1198L115.89 60.9711Z" fill="white"/>
<path d="M118.153 53.0275C118.838 52.2289 119.58 51.8987 120.312 52.383C120.829 52.7233 121.046 53.2656 121.006 53.842C120.976 54.3724 120.698 55.0189 120.286 55.6413L119.019 57.5446L118.75 57.3665C119.08 56.7541 119.072 56.652 118.416 56.2197L115.47 54.2763C114.807 53.84 114.716 53.8761 114.308 54.3724L114.039 54.1943L115.494 52.0067C115.878 51.4303 116.204 51.1061 116.58 50.944C116.95 50.7879 117.377 50.8319 117.753 51.0821C118.493 51.5704 118.374 52.397 118.125 53.0075L118.153 53.0275ZM117.421 53.8921C117.899 53.1736 117.821 52.6572 117.182 52.2349C116.48 51.7726 115.949 52.0047 115.679 52.409C115.565 52.5811 115.539 52.7373 115.555 52.8113C115.573 52.8994 115.679 52.9914 115.842 53.0975L117.308 54.0642L117.421 53.8921ZM119.058 55.219C119.629 55.5953 119.89 55.5532 120.145 55.151C120.417 54.7267 120.415 54.0462 119.659 53.5478C118.935 53.0695 118.277 53.2736 117.714 54.1202L117.614 54.2703L119.058 55.219Z" fill="white"/>
<path d="M122.942 46.5869C123.288 46.7931 124.078 47.2914 124.287 47.4475L122.737 51.5424L122.433 51.4283C122.65 50.6738 122.63 50.5697 121.894 50.2935L118.578 49.0507C117.834 48.7705 117.75 48.8365 117.448 49.4529L117.145 49.3389L118.116 46.773L118.419 46.8871C118.238 47.5496 118.261 47.6437 119.007 47.9239L122.391 49.1928C122.797 49.3449 122.958 49.3669 123.099 49.2288C123.217 49.1007 123.316 48.8885 123.414 48.6264C123.551 48.2641 123.605 47.9399 123.448 47.6497C123.332 47.4335 123.117 47.1693 122.733 46.8531L122.942 46.5869Z" fill="white"/>
<path d="M125.999 46.9692L125.715 47.1474C125.098 46.1967 123.769 45.4261 122.214 45.0939C120.66 44.7617 119.045 44.9678 118.167 45.5342L117.99 45.258C119.222 44.1893 120.741 43.9071 122.406 44.2633C124.048 44.6136 125.317 45.4902 125.999 46.9692Z" fill="white"/>
<path d="M3.85877 38.587C3.85877 37.5963 3.05243 36.7937 2.05707 36.7937C1.06171 36.7937 0.255371 37.5963 0.255371 38.587C0.255371 39.5777 1.06171 40.3802 2.05707 40.3802C3.05243 40.3802 3.85877 39.5777 3.85877 38.587Z" fill="white"/>
<path d="M125.226 38.587C125.226 37.5963 124.42 36.7937 123.424 36.7937C122.429 36.7937 121.623 37.5963 121.623 38.587C121.623 39.5777 122.429 40.3802 123.424 40.3802C124.418 40.3802 125.226 39.5777 125.226 38.587Z" fill="white"/>
</svg>
