<svg width="720" height="366" viewBox="0 0 720 366" fill="none" xmlns="http://www.w3.org/2000/svg">
<g opacity="0.2">
<path d="M359.844 0.897873C161.399 0.897873 0.544922 82.4771 0.544922 183.096C0.544922 283.715 161.414 365.294 359.844 365.294C558.274 365.294 719.144 283.715 719.144 183.096C719.144 82.4771 558.274 0.897873 359.844 0.897873ZM360.527 358.963C174.958 358.963 24.5458 280.349 24.5458 183.359C24.5458 86.3685 174.958 7.75405 360.527 7.75405C546.08 7.75405 696.508 86.3685 696.508 183.359C696.508 280.349 546.08 358.963 360.527 358.963Z" fill="white"/>
<path d="M360.978 0C252.206 0 164.037 81.78 164.037 182.646C164.037 283.512 252.206 365.292 360.978 365.292C469.734 365.292 557.918 283.512 557.918 182.646C557.918 81.7646 469.75 0 360.978 0ZM361.878 358.946C266.2 358.946 188.628 280.532 188.628 183.804C188.628 87.0766 266.2 8.66288 361.878 8.66288C457.555 8.66288 535.128 87.0766 535.128 183.804C535.128 280.532 457.555 358.946 361.878 358.946Z" fill="white"/>
<path d="M597.653 54.5899C535.409 84.053 452.252 102.105 360.778 102.105C267.288 102.105 182.47 83.25 119.808 52.6134C117.884 54.2966 115.51 55.5628 112.671 56.2113C173.643 90.6467 262.665 112.373 361.911 112.373C457.697 112.373 543.911 92.0982 604.619 59.7321C601.718 58.6512 599.391 56.829 597.653 54.5899Z" fill="white"/>
<path d="M121.758 310.536C184.002 281.072 267.16 263.005 358.633 263.005C452.123 263.005 536.94 281.86 599.603 312.497C601.512 310.814 603.901 309.547 606.725 308.899C545.768 274.479 456.731 252.721 357.5 252.721C261.714 252.721 175.5 272.996 114.792 305.362C117.709 306.474 120.02 308.281 121.758 310.536Z" fill="white"/>
<path d="M699.283 175.635H23.0381V185.61H699.283V175.635Z" fill="white"/>
<path d="M361.894 362.117C363.182 362.117 364.392 362.24 365.54 362.456V5.91974H355.518V363.151C357.41 362.487 359.52 362.117 361.894 362.117Z" fill="white"/>
</g>
</svg>
